# xmcd
#
# Track frame offsets:
#       150
#       18699
#       32880
#       50322
#       62493
#       78408
#       108615
#       123639
#       137469
#       154287
#       171219
#       194028
#       210879
#       222981
#
# Disc length: 3196 seconds
#
# Revision: 1
# Processed by: cddbd v1.5.1PL0 Copyright (c) Steve Scherf et al.
# Submitted via: MusiCat 1.1
#
DISCID=ca0c7a0e
DTITLE=Jamelão - Enciclopédia Musical Brasileira
DYEAR=1900
DGENRE=
TTITLE0=Esses moços
TTITLE1=Exaltação à mangueira
TTITLE2=Folhas mortas
TTITLE3=Eu agora sou feliz
TTITLE4=Timbó
TTITLE5=Dona divergência
TTITLE6=Apoteose ao samba
TTITLE7=Leviana
TTITLE8=Quem samba fica
TTITLE9=O grande presidente
TTITLE10=Vingança
TTITLE11=Pense em mim
TTITLE12=Cântico à natureza
TTITLE13=Homenagem
EXTD=\n\n
EXTT0=
EXTT1=
EXTT2=
EXTT3=
EXTT4=
EXTT5=
EXTT6=
EXTT7=
EXTT8=
EXTT9=
EXTT10=
EXTT11=
EXTT12=
EXTT13=
PLAYORDER=
